<mxfile host="app.diagrams.net" modified="2023-04-30T06:43:05.138Z" agent="Mozilla/5.0 (Windows NT 10.0; Win64; x64) AppleWebKit/537.36 (KHTML, like Gecko) Chrome/112.0.0.0 Safari/537.36" etag="14id3RBByucb3iksJX8J" version="21.2.3" type="github">
  <diagram id="C5RBs43oDa-KdzZeNtuy" name="main">
    <mxGraphModel dx="880" dy="484" grid="1" gridSize="10" guides="1" tooltips="1" connect="1" arrows="1" fold="1" page="1" pageScale="1" pageWidth="827" pageHeight="1169" math="0" shadow="0">
      <root>
        <mxCell id="WIyWlLk6GJQsqaUBKTNV-0" />
        <mxCell id="WIyWlLk6GJQsqaUBKTNV-1" parent="WIyWlLk6GJQsqaUBKTNV-0" />
        <mxCell id="lfX9ihIzXKTpSCMwRkn0-2" style="edgeStyle=orthogonalEdgeStyle;rounded=0;orthogonalLoop=1;jettySize=auto;html=1;exitX=0.5;exitY=1;exitDx=0;exitDy=0;entryX=0.5;entryY=0;entryDx=0;entryDy=0;" edge="1" parent="WIyWlLk6GJQsqaUBKTNV-1" source="lfX9ihIzXKTpSCMwRkn0-0" target="lfX9ihIzXKTpSCMwRkn0-1">
          <mxGeometry relative="1" as="geometry" />
        </mxCell>
        <mxCell id="lfX9ihIzXKTpSCMwRkn0-0" value="Need auth" style="rounded=1;whiteSpace=wrap;html=1;" vertex="1" parent="WIyWlLk6GJQsqaUBKTNV-1">
          <mxGeometry x="35" y="10" width="120" height="40" as="geometry" />
        </mxCell>
        <mxCell id="lfX9ihIzXKTpSCMwRkn0-5" style="edgeStyle=orthogonalEdgeStyle;rounded=0;orthogonalLoop=1;jettySize=auto;html=1;entryX=0.5;entryY=0;entryDx=0;entryDy=0;" edge="1" parent="WIyWlLk6GJQsqaUBKTNV-1" source="lfX9ihIzXKTpSCMwRkn0-1" target="lfX9ihIzXKTpSCMwRkn0-4">
          <mxGeometry relative="1" as="geometry" />
        </mxCell>
        <mxCell id="lfX9ihIzXKTpSCMwRkn0-6" style="edgeStyle=orthogonalEdgeStyle;rounded=0;orthogonalLoop=1;jettySize=auto;html=1;" edge="1" parent="WIyWlLk6GJQsqaUBKTNV-1" source="lfX9ihIzXKTpSCMwRkn0-1" target="lfX9ihIzXKTpSCMwRkn0-3">
          <mxGeometry relative="1" as="geometry" />
        </mxCell>
        <mxCell id="lfX9ihIzXKTpSCMwRkn0-1" value="Are you signed?" style="rhombus;whiteSpace=wrap;html=1;" vertex="1" parent="WIyWlLk6GJQsqaUBKTNV-1">
          <mxGeometry x="20" y="90" width="150" height="80" as="geometry" />
        </mxCell>
        <mxCell id="lfX9ihIzXKTpSCMwRkn0-10" style="edgeStyle=orthogonalEdgeStyle;rounded=0;orthogonalLoop=1;jettySize=auto;html=1;entryX=1;entryY=0.5;entryDx=0;entryDy=0;" edge="1" parent="WIyWlLk6GJQsqaUBKTNV-1" source="lfX9ihIzXKTpSCMwRkn0-3" target="lfX9ihIzXKTpSCMwRkn0-4">
          <mxGeometry relative="1" as="geometry">
            <Array as="points">
              <mxPoint x="280" y="240" />
            </Array>
          </mxGeometry>
        </mxCell>
        <mxCell id="lfX9ihIzXKTpSCMwRkn0-3" value="Sign up" style="rounded=1;whiteSpace=wrap;html=1;" vertex="1" parent="WIyWlLk6GJQsqaUBKTNV-1">
          <mxGeometry x="220" y="110" width="120" height="40" as="geometry" />
        </mxCell>
        <mxCell id="lfX9ihIzXKTpSCMwRkn0-11" style="edgeStyle=orthogonalEdgeStyle;rounded=0;orthogonalLoop=1;jettySize=auto;html=1;entryX=0.5;entryY=0;entryDx=0;entryDy=0;" edge="1" parent="WIyWlLk6GJQsqaUBKTNV-1" source="lfX9ihIzXKTpSCMwRkn0-4" target="lfX9ihIzXKTpSCMwRkn0-9">
          <mxGeometry relative="1" as="geometry" />
        </mxCell>
        <mxCell id="lfX9ihIzXKTpSCMwRkn0-4" value="Log in" style="rounded=1;whiteSpace=wrap;html=1;" vertex="1" parent="WIyWlLk6GJQsqaUBKTNV-1">
          <mxGeometry x="35" y="220" width="120" height="40" as="geometry" />
        </mxCell>
        <mxCell id="lfX9ihIzXKTpSCMwRkn0-7" value="Yes" style="text;html=1;strokeColor=none;fillColor=none;align=center;verticalAlign=middle;whiteSpace=wrap;rounded=0;" vertex="1" parent="WIyWlLk6GJQsqaUBKTNV-1">
          <mxGeometry x="100" y="200" width="30" height="20" as="geometry" />
        </mxCell>
        <mxCell id="lfX9ihIzXKTpSCMwRkn0-8" value="No" style="text;html=1;strokeColor=none;fillColor=none;align=center;verticalAlign=middle;whiteSpace=wrap;rounded=0;" vertex="1" parent="WIyWlLk6GJQsqaUBKTNV-1">
          <mxGeometry x="180" y="110" width="30" height="20" as="geometry" />
        </mxCell>
        <mxCell id="lfX9ihIzXKTpSCMwRkn0-14" style="edgeStyle=orthogonalEdgeStyle;rounded=0;orthogonalLoop=1;jettySize=auto;html=1;entryX=0.5;entryY=0;entryDx=0;entryDy=0;" edge="1" parent="WIyWlLk6GJQsqaUBKTNV-1" source="lfX9ihIzXKTpSCMwRkn0-9" target="lfX9ihIzXKTpSCMwRkn0-13">
          <mxGeometry relative="1" as="geometry" />
        </mxCell>
        <mxCell id="lfX9ihIzXKTpSCMwRkn0-9" value="Load account details" style="rounded=1;whiteSpace=wrap;html=1;" vertex="1" parent="WIyWlLk6GJQsqaUBKTNV-1">
          <mxGeometry x="35" y="300" width="120" height="40" as="geometry" />
        </mxCell>
        <mxCell id="lfX9ihIzXKTpSCMwRkn0-13" value="Show main page" style="rounded=1;whiteSpace=wrap;html=1;" vertex="1" parent="WIyWlLk6GJQsqaUBKTNV-1">
          <mxGeometry x="35" y="370" width="120" height="40" as="geometry" />
        </mxCell>
      </root>
    </mxGraphModel>
  </diagram>
</mxfile>
